# xmcd CD database file generated by OrangeCD 6.3
#
# Track frame offsets:
#	150
#	17915
#	34017
#	47829
#	63136
#	77718
#	88816
#	105962
#	120751
#	136254
#	152139
#	167747
#	181931
#	198715
#	212640
#	229175
#	243966
#	261463
#	276078
#	292754
#	306023
#	319731
#
# Disc length: 4470 seconds
#
# Revision: 0
# Processed by: cddbd v1.5.2PL0 Copyright (c) Steve Scherf et al.
# Submitted via: OrangeCD 6.3
#
DISCID=28117416
DTITLE=Dolly Parton - Slow Dancing With The Moon (1993) - Something Special (19
DTITLE=95)
DYEAR=1900
DGENRE=Country
TTITLE0=Full Circle
TTITLE1=Romeo
TTITLE2=(You Got Me Over) A Heartache Tonight
TTITLE3=What Will Baby Be
TTITLE4=More Where That Came From
TTITLE5=Put A Little Love In Your Heart
TTITLE6=Why Can't We
TTITLE7=I'll Make Your Bed
TTITLE8=Whenever Forever Comes
TTITLE9=Cross My Heart
TTITLE10=Slow Dancing With The Moon
TTITLE11=High And Mighty
TTITLE12=Crippled Bird
TTITLE13=Something Special
TTITLE14=Change
TTITLE15=I Will Always Love You
TTITLE16=Green-Eyed Boy
TTITLE17=Speakin' Of The Devil
TTITLE18=Jolene
TTITLE19=No Good Way Of Saying Goodbye
TTITLE20=The Seeker
TTITLE21=Teach Me To Trust
EXTD=
EXTT0=
EXTT1=
EXTT2=
EXTT3=
EXTT4=
EXTT5=
EXTT6=
EXTT7=
EXTT8=
EXTT9=
EXTT10=
EXTT11=
EXTT12=
EXTT13=
EXTT14=
EXTT15=
EXTT16=
EXTT17=
EXTT18=
EXTT19=
EXTT20=
EXTT21=
PLAYORDER=
